<?xml version="1.0" encoding="iso-8859-1"?>
<!-- Generator: Adobe Illustrator 19.2.1, SVG Export Plug-In . SVG Version: 6.00 Build 0)  -->
<svg xmlns="http://www.w3.org/2000/svg" xmlns:xlink="http://www.w3.org/1999/xlink" version="1.1" id="Layer_1" x="0px" y="0px" viewBox="0 0 40 40" style="enable-background:new 0 0 40 40;" xml:space="preserve" width="40px" height="40px">
<g>
	<rect x="1.5" y="4.5" style="fill:#FFFFFF;" width="37" height="31"/>
	<g>
		<path style="fill:#788B9C;" d="M38,5v30H2V5H38 M39,4H1v32h38V4L39,4z"/>
	</g>
</g>
<rect x="6" y="9" style="fill:#B5DEFF;" width="28" height="17.875"/>
<rect x="6" y="19" style="fill:#D9F6FF;" width="28" height="8"/>
<rect x="6" y="27" style="fill:#7AADF0;" width="28" height="4"/>
<ellipse style="fill:#D9F6FF;" cx="14.75" cy="18.143" rx="3.5" ry="3.143"/>
<ellipse style="fill:#D9F6FF;" cx="11.25" cy="18.143" rx="2.625" ry="2.357"/>
<ellipse style="fill:#D9F6FF;" cx="20" cy="19.714" rx="3.5" ry="3.143"/>
<ellipse style="fill:#D9F6FF;" cx="25.25" cy="18.143" rx="3.5" ry="3.143"/>
<ellipse style="fill:#D9F6FF;" cx="32.25" cy="18.143" rx="1.75" ry="1.571"/>
<ellipse style="fill:#D9F6FF;" cx="7.75" cy="18.143" rx="1.75" ry="1.571"/>
<ellipse style="fill:#D9F6FF;" cx="28.75" cy="18.143" rx="2.625" ry="2.357"/>
<polygon style="fill:#4A6D9C;" points="6,27 34,27 34,25.384 25.25,20 "/>
<polygon style="fill:#5D84B8;" points="27,27 6,27 6,23 14.75,19 "/>
</svg>
